<?xml version="1.0" encoding="utf-8"?>
<!-- Generator: Adobe Illustrator 16.0.0, SVG Export Plug-In . SVG Version: 6.00 Build 0)  -->
<!DOCTYPE svg PUBLIC "-//W3C//DTD SVG 1.1//EN" "http://www.w3.org/Graphics/SVG/1.1/DTD/svg11.dtd">
<svg version="1.1" id="Ebene_2" xmlns="http://www.w3.org/2000/svg" xmlns:xlink="http://www.w3.org/1999/xlink" x="0px" y="0px"
	 width="16px" height="16px" viewBox="0 0 16 16" enable-background="new 0 0 16 16" xml:space="preserve">
<path fill="#FFBC00" d="M14.928,3.984c-0.716-1.226-1.687-2.196-2.912-2.911C10.79,0.357,9.452,0,8,0s-2.79,0.357-4.016,1.073
	C2.759,1.788,1.788,2.759,1.073,3.984C0.358,5.211,0,6.549,0,8s0.358,2.79,1.073,4.015c0.715,1.226,1.686,2.196,2.912,2.912
	C5.211,15.643,6.549,16,8,16s2.792-0.357,4.015-1.072c1.226-0.716,2.196-1.687,2.912-2.912C15.643,10.79,16,9.452,16,8
	S15.643,5.21,14.928,3.984z M9.334,12.989c0,0.099-0.031,0.18-0.095,0.245c-0.062,0.066-0.137,0.1-0.229,0.1H7.011
	c-0.09,0-0.17-0.035-0.239-0.104c-0.07-0.069-0.104-0.149-0.104-0.24v-1.979c0-0.09,0.034-0.171,0.104-0.239
	c0.069-0.07,0.149-0.105,0.239-0.105H9.01c0.093,0,0.167,0.034,0.229,0.101c0.063,0.066,0.095,0.146,0.095,0.244V12.989
	L9.334,12.989z M9.314,9.406c-0.008,0.07-0.045,0.131-0.11,0.183C9.138,9.641,9.057,9.667,8.959,9.667H7.032
	c-0.097,0-0.181-0.026-0.25-0.078C6.712,9.537,6.678,9.477,6.678,9.406L6.5,2.937c0-0.083,0.035-0.145,0.104-0.187
	c0.07-0.056,0.153-0.083,0.25-0.083h2.293c0.096,0,0.181,0.028,0.249,0.083c0.069,0.042,0.104,0.104,0.104,0.187L9.314,9.406z"/>
</svg>
